999
Created on Wed, 14 Mar 2018 14:21:05
0
SECTION
2
HEADER
9
$ACADVER
1
AC1009
9
$INSBASE
10
0.0
20
0.0
30
0.0
9
$EXTMIN
10
0.0
20
0.0
9
$EXTMAX
10
71.746
20
25.4605
0
ENDSEC
0
SECTION
2
TABLES
0
TABLE
2
LTYPE
70
1
0
LTYPE
2
CONTINUOUS
70
64
3
Solid Line
72
65
73
0
40
0.0
0
ENDTAB
0
TABLE
2
LAYER
70
6
0
LAYER
2
1
70
64
62
7
6
CONTINUOUS
0
ENDTAB
0
TABLE
2
STYLE
70
0
0
ENDTAB
0
ENDSEC
0
SECTION
2
BLOCKS
0
ENDSEC
0
SECTION
2
ENTITIES
0
LINE
8
1
62
255
10
0.0
20
22.257962499999998
11
0.19058100304871628
21
21.111626457115577
0
LINE
8
1
62
255
10
0.19058100304871628
20
21.111626457115577
11
0.3063497691600843
21
19.980362523689564
0
LINE
8
1
62
255
10
0.3063497691600843
20
19.980362523689564
11
0.3613107552930004
21
18.861349280167744
0
LINE
8
1
62
255
10
0.3613107552930004
20
18.861349280167744
11
0.36946841840636213
21
17.751765306995885
0
LINE
8
1
62
255
10
0.36946841840636213
20
17.751765306995885
11
0.3448272154590655
21
16.64878918461977
0
LINE
8
1
62
255
10
0.3448272154590655
20
16.64878918461977
11
0.3013916034100075
21
15.54959949348518
0
LINE
8
1
62
255
10
0.3013916034100075
20
15.54959949348518
11
8.325271527801481
21
15.19770140515208
0
LINE
8
1
62
255
10
8.325271527801481
20
15.19770140515208
11
0.36527506325665915
21
14.127683839848151
0
LINE
8
1
62
255
10
0.36527506325665915
20
14.127683839848151
11
0.49292447934374894
21
13.107498836929997
0
LINE
8
1
62
255
10
0.49292447934374894
20
13.107498836929997
11
0.6021998270312126
21
12.089783756708577
0
LINE
8
1
62
255
10
0.6021998270312126
20
12.089783756708577
11
0.6945287803187478
21
11.074346684995987
0
LINE
8
1
62
255
10
0.6945287803187478
20
11.074346684995987
11
0.771339013206053
21
10.060995707604324
0
LINE
8
1
62
255
10
0.771339013206053
20
10.060995707604324
11
0.834058199692826
21
9.049538910345683
0
LINE
8
1
62
255
10
0.834058199692826
20
9.049538910345683
11
0.8841140137787643
21
8.039784379032165
0
LINE
8
1
62
255
10
0.8841140137787643
20
8.039784379032165
11
0.9229341294635672
21
7.031540199475864
0
LINE
8
1
62
255
10
0.9229341294635672
20
7.031540199475864
11
0.9519462207469312
21
6.0246144574888785
0
LINE
8
1
62
255
10
0.9519462207469312
20
6.0246144574888785
11
0.9725779616285551
21
5.0188152388833025
0
LINE
8
1
62
255
10
0.9725779616285551
20
5.0188152388833025
11
0.9862570261081368
21
4.013950629471239
0
LINE
8
1
62
255
10
0.9862570261081368
20
4.013950629471239
11
0.9944110881853739
21
3.009828715064778
0
LINE
8
1
62
255
10
0.9944110881853739
20
3.009828715064778
11
0.9984678218599653
21
2.006257581476021
0
LINE
8
1
62
255
10
0.9984678218599653
20
2.006257581476021
11
0.9998549011316079
21
1.0030453145170615
0
LINE
8
1
62
255
10
0.9998549011316079
20
1.0030453145170615
11
1.0
21
0.0
0
LINE
8
1
62
255
10
1.0
20
0.0
11
71.746
21
0.0
0
LINE
8
1
62
255
10
71.746
20
0.0
11
71.746
21
25.4605
0
LINE
8
1
62
255
10
71.746
20
25.4605
11
25.604
21
25.4605
0
LINE
8
1
62
255
10
25.604
20
25.4605
11
24.5721225669869
21
25.40879887130481
0
LINE
8
1
62
255
10
24.5721225669869
20
25.40879887130481
11
23.54058537243332
21
25.35070360710381
0
LINE
8
1
62
255
10
23.54058537243332
20
25.35070360710381
11
22.509428037881356
21
25.286216438847248
0
LINE
8
1
62
255
10
22.509428037881356
20
25.286216438847248
11
21.478690170282622
21
25.21533984349969
0
LINE
8
1
62
255
10
21.478690170282622
20
25.21533984349969
11
20.448411360476907
21
25.13807654344481
0
LINE
8
1
62
255
10
20.448411360476907
20
25.13807654344481
11
19.418631181671515
21
25.054429506380785
0
LINE
8
1
62
255
10
19.418631181671515
20
25.054429506380785
11
18.389389187921275
21
24.96440194520642
0
LINE
8
1
62
255
10
18.389389187921275
20
24.96440194520642
11
17.3607249126091
21
24.867997317897647
0
LINE
8
1
62
255
10
17.3607249126091
20
24.867997317897647
11
16.33267786692776
21
24.76521932737481
0
LINE
8
1
62
255
10
16.33267786692776
20
24.76521932737481
11
15.305287538362059
21
24.656071921360223
0
LINE
8
1
62
255
10
15.305287538362059
20
24.656071921360223
11
14.278593389172176
21
24.540559292226817
0
LINE
8
1
62
255
10
14.278593389172176
20
24.540559292226817
11
13.252634854877911
21
24.418685876836832
0
LINE
8
1
62
255
10
13.252634854877911
20
24.418685876836832
11
12.227451342743954
21
24.290456356371635
0
LINE
8
1
62
255
10
12.227451342743954
20
24.290456356371635
11
11.203082230266237
21
24.155875656151807
0
LINE
8
1
62
255
10
11.203082230266237
20
24.155875656151807
11
10.17956686365945
21
24.014948945447856
0
LINE
8
1
62
255
10
10.17956686365945
20
24.014948945447856
11
9.156944556345742
21
23.86768163728192
0
LINE
8
1
62
255
10
9.156944556345742
20
23.86768163728192
11
8.135254587444678
21
23.71407938821963
0
LINE
8
1
62
255
10
8.135254587444678
20
23.71407938821963
11
7.114536200264521
21
23.554148098152922
0
LINE
8
1
62
255
10
7.114536200264521
20
23.554148098152922
11
6.094828600794951
21
23.387893910073387
0
LINE
8
1
62
255
10
6.094828600794951
20
23.387893910073387
11
5.076170956200965
21
23.215323209836413
0
LINE
8
1
62
255
10
5.076170956200965
20
23.215323209836413
11
4.058602393318708
21
23.036442625915782
0
LINE
8
1
62
255
10
4.058602393318708
20
23.036442625915782
11
3.042161997152448
21
22.851259029149105
0
LINE
8
1
62
255
10
3.042161997152448
20
22.851259029149105
11
2.0268888093733644
21
22.659779532474033
0
LINE
8
1
62
255
10
2.0268888093733644
20
22.659779532474033
11
1.0128218268199234
21
22.462011490654817
0
LINE
8
1
62
255
10
1.0128218268199234
20
22.462011490654817
11
0.0
21
22.257962499999998
0
ENDSEC
0
EOF
