999
Created on Wed, 14 Mar 2018 14:21:05
0
SECTION
2
HEADER
9
$ACADVER
1
AC1009
9
$INSBASE
10
0.0
20
0.0
30
0.0
9
$EXTMIN
10
0.0
20
0.0
9
$EXTMAX
10
71.746
20
25.4605
0
ENDSEC
0
SECTION
2
TABLES
0
TABLE
2
LTYPE
70
1
0
LTYPE
2
CONTINUOUS
70
64
3
Solid Line
72
65
73
0
40
0.0
0
ENDTAB
0
TABLE
2
LAYER
70
6
0
LAYER
2
1
70
64
62
7
6
CONTINUOUS
0
ENDTAB
0
TABLE
2
STYLE
70
0
0
ENDTAB
0
ENDSEC
0
SECTION
2
BLOCKS
0
ENDSEC
0
SECTION
2
ENTITIES
0
LINE
8
1
62
255
10
0.0
20
22.257962499999998
11
0.20048219036225465
21
21.129201780068527
0
LINE
8
1
62
255
10
0.20048219036225465
20
21.129201780068527
11
0.34891338755313667
21
20.010927556713206
0
LINE
8
1
62
255
10
0.34891338755313667
20
20.010927556713206
11
0.4514078536386378
21
18.90190801504802
0
LINE
8
1
62
255
10
0.4514078536386378
20
18.90190801504802
11
0.5140798506847496
21
17.80091134018694
0
LINE
8
1
62
255
10
0.5140798506847496
20
17.80091134018694
11
0.5430436407574635
21
16.706705717243945
0
LINE
8
1
62
255
10
0.5430436407574635
20
16.706705717243945
11
0.5444134859227721
21
15.618059331333015
0
LINE
8
1
62
255
10
0.5444134859227721
20
15.618059331333015
11
0.5243036482466661
21
14.533740367568129
0
LINE
8
1
62
255
10
0.5243036482466661
20
14.533740367568129
11
0.488828389795138
21
13.452517011063266
0
LINE
8
1
62
255
10
0.488828389795138
20
13.452517011063266
11
0.4441019726341798
21
12.3731574469324
0
LINE
8
1
62
255
10
0.4441019726341798
20
12.3731574469324
11
14.485891840319258
21
11.757335792349473
0
LINE
8
1
62
255
10
14.485891840319258
20
11.757335792349473
11
0.5558980273658203
21
9.884805053067598
0
LINE
8
1
62
255
10
0.5558980273658203
20
9.884805053067598
11
0.6892108122522288
21
8.775206018120091
0
LINE
8
1
62
255
10
0.6892108122522288
20
8.775206018120091
11
0.7927583360028897
21
7.669608159855635
0
LINE
8
1
62
255
10
0.7927583360028897
20
7.669608159855635
11
0.8703005546837959
21
6.567506048522684
0
LINE
8
1
62
255
10
0.8703005546837959
20
6.567506048522684
11
0.9255974243609407
21
5.4683942543696915
0
LINE
8
1
62
255
10
0.9255974243609407
20
5.4683942543696915
11
0.9624089011003168
21
4.371767347645113
0
LINE
8
1
62
255
10
0.9624089011003168
20
4.371767347645113
11
0.9844949409679181
21
3.277119898597401
0
LINE
8
1
62
255
10
0.9844949409679181
20
3.277119898597401
11
0.9956155000297369
21
2.1839464774750086
0
LINE
8
1
62
255
10
0.9956155000297369
20
2.1839464774750086
11
0.9995305343517664
21
1.0917416545263894
0
LINE
8
1
62
255
10
0.9995305343517664
20
1.0917416545263894
11
1.0
21
0.0
0
LINE
8
1
62
255
10
1.0
20
0.0
11
71.746
21
0.0
0
LINE
8
1
62
255
10
71.746
20
0.0
11
71.746
21
25.4605
0
LINE
8
1
62
255
10
71.746
20
25.4605
11
25.604
21
25.4605
0
LINE
8
1
62
255
10
25.604
20
25.4605
11
24.5721225669869
21
25.40879887130481
0
LINE
8
1
62
255
10
24.5721225669869
20
25.40879887130481
11
23.54058537243332
21
25.35070360710381
0
LINE
8
1
62
255
10
23.54058537243332
20
25.35070360710381
11
22.509428037881356
21
25.286216438847248
0
LINE
8
1
62
255
10
22.509428037881356
20
25.286216438847248
11
21.478690170282622
21
25.21533984349969
0
LINE
8
1
62
255
10
21.478690170282622
20
25.21533984349969
11
20.448411360476907
21
25.13807654344481
0
LINE
8
1
62
255
10
20.448411360476907
20
25.13807654344481
11
19.418631181671515
21
25.054429506380785
0
LINE
8
1
62
255
10
19.418631181671515
20
25.054429506380785
11
18.389389187921275
21
24.96440194520642
0
LINE
8
1
62
255
10
18.389389187921275
20
24.96440194520642
11
17.3607249126091
21
24.867997317897647
0
LINE
8
1
62
255
10
17.3607249126091
20
24.867997317897647
11
16.33267786692776
21
24.76521932737481
0
LINE
8
1
62
255
10
16.33267786692776
20
24.76521932737481
11
15.305287538362059
21
24.656071921360223
0
LINE
8
1
62
255
10
15.305287538362059
20
24.656071921360223
11
14.278593389172176
21
24.540559292226817
0
LINE
8
1
62
255
10
14.278593389172176
20
24.540559292226817
11
13.252634854877911
21
24.418685876836832
0
LINE
8
1
62
255
10
13.252634854877911
20
24.418685876836832
11
12.227451342743954
21
24.290456356371635
0
LINE
8
1
62
255
10
12.227451342743954
20
24.290456356371635
11
11.203082230266237
21
24.155875656151807
0
LINE
8
1
62
255
10
11.203082230266237
20
24.155875656151807
11
10.17956686365945
21
24.014948945447856
0
LINE
8
1
62
255
10
10.17956686365945
20
24.014948945447856
11
9.156944556345742
21
23.86768163728192
0
LINE
8
1
62
255
10
9.156944556345742
20
23.86768163728192
11
8.135254587444678
21
23.71407938821963
0
LINE
8
1
62
255
10
8.135254587444678
20
23.71407938821963
11
7.114536200264521
21
23.554148098152922
0
LINE
8
1
62
255
10
7.114536200264521
20
23.554148098152922
11
6.094828600794951
21
23.387893910073387
0
LINE
8
1
62
255
10
6.094828600794951
20
23.387893910073387
11
5.076170956200965
21
23.215323209836413
0
LINE
8
1
62
255
10
5.076170956200965
20
23.215323209836413
11
4.058602393318708
21
23.036442625915782
0
LINE
8
1
62
255
10
4.058602393318708
20
23.036442625915782
11
3.042161997152448
21
22.851259029149105
0
LINE
8
1
62
255
10
3.042161997152448
20
22.851259029149105
11
2.0268888093733644
21
22.659779532474033
0
LINE
8
1
62
255
10
2.0268888093733644
20
22.659779532474033
11
1.0128218268199234
21
22.462011490654817
0
LINE
8
1
62
255
10
1.0128218268199234
20
22.462011490654817
11
0.0
21
22.257962499999998
0
ENDSEC
0
EOF
