999
Created on Tue, 27 Feb 2018 17:37:31
0
SECTION
2
HEADER
9
$ACADVER
1
AC1009
9
$INSBASE
10
0.0
20
0.0
30
0.0
9
$EXTMIN
10
0.0
20
0.0
9
$EXTMAX
10
103.29
20
27.885
0
ENDSEC
0
SECTION
2
TABLES
0
TABLE
2
LTYPE
70
1
0
LTYPE
2
CONTINUOUS
70
64
3
Solid Line
72
65
73
0
40
0.0
0
ENDTAB
0
TABLE
2
LAYER
70
6
0
LAYER
2
1
70
64
62
7
6
CONTINUOUS
0
ENDTAB
0
TABLE
2
STYLE
70
0
0
ENDTAB
0
ENDSEC
0
SECTION
2
BLOCKS
0
ENDSEC
0
SECTION
2
ENTITIES
0
LINE
8
1
62
4
10
0.0
20
23.9898
11
0.28766776606432515
21
22.87004019553311
0
LINE
8
1
62
4
10
0.28766776606432515
20
22.87004019553311
11
0.49264815607384504
21
21.77455294117369
0
LINE
8
1
62
4
10
0.49264815607384504
20
21.77455294117369
11
0.6256175495824591
21
20.700204228200537
0
LINE
8
1
62
4
10
0.6256175495824591
20
20.700204228200537
11
0.6972523261440677
21
19.643860047892463
0
LINE
8
1
62
4
10
0.6972523261440677
20
19.643860047892463
11
0.7182288653125699
21
18.60238639152827
0
LINE
8
1
62
4
10
0.7182288653125699
20
18.60238639152827
11
0.6992235466418657
21
17.572649250386775
0
LINE
8
1
62
4
10
0.6992235466418657
20
17.572649250386775
11
0.6509127496858551
21
16.551514615746772
0
LINE
8
1
62
4
10
0.6509127496858551
20
16.551514615746772
11
0.5839728539984383
21
15.535848478887077
0
LINE
8
1
62
4
10
0.5839728539984383
20
15.535848478887077
11
0.5090802391335134
21
14.522516831086493
0
LINE
8
1
62
4
10
0.5090802391335134
20
14.522516831086493
11
0.4369112846449813
21
13.508385663623827
0
LINE
8
1
62
4
10
0.4369112846449813
20
13.508385663623827
11
14.487852713713735
21
12.577975003281132
0
LINE
8
1
62
4
10
14.487852713713735
20
12.577975003281132
11
0.5630887153550186
21
10.481414336376172
0
LINE
8
1
62
4
10
0.5630887153550186
20
10.481414336376172
11
0.7052939009305176
21
9.418440285302419
0
LINE
8
1
62
4
10
0.7052939009305176
20
9.418440285302419
11
0.813914818704964
21
8.360522797837698
0
LINE
8
1
62
4
10
0.813914818704964
20
8.360522797837698
11
0.8933360643445027
21
7.307001714081634
0
LINE
8
1
62
4
10
0.8933360643445027
20
7.307001714081634
11
0.9479422335152778
21
6.257216874133854
0
LINE
8
1
62
4
10
0.9479422335152778
20
6.257216874133854
11
0.9821179218834345
21
5.210508118093978
0
LINE
8
1
62
4
10
0.9821179218834345
20
5.210508118093978
11
1.0002477251151172
21
4.16621528606163
0
LINE
8
1
62
4
10
1.0002477251151172
20
4.16621528606163
11
1.0067162388764705
21
3.123678218136434
0
LINE
8
1
62
4
10
1.0067162388764705
20
3.123678218136434
11
1.0059080588336393
21
2.082236754418016
0
LINE
8
1
62
4
10
1.0059080588336393
20
2.082236754418016
11
1.0022077806527674
21
1.041230735005998
0
LINE
8
1
62
4
10
1.0022077806527674
20
1.041230735005998
11
1.0
21
0.0
0
LINE
8
1
62
4
10
1.0
20
0.0
11
103.29
21
0.0
0
LINE
8
1
62
4
10
103.29
20
0.0
11
103.29
21
27.885
0
LINE
8
1
62
4
10
103.29
20
27.885
11
20.0
21
27.885
0
LINE
8
1
62
4
10
20.0
20
27.885
11
18.98459428004556
21
27.78396170169505
0
LINE
8
1
62
4
10
18.98459428004556
20
27.78396170169505
11
17.970228333985183
21
27.672969623988337
0
LINE
8
1
62
4
10
17.970228333985183
20
27.672969623988337
11
16.95699973396556
21
27.552034443239194
0
LINE
8
1
62
4
10
16.95699973396556
20
27.552034443239194
11
15.945005942731658
21
27.421167792236744
0
LINE
8
1
62
4
10
15.945005942731658
20
27.421167792236744
11
14.934344304251852
21
27.280382259081094
0
LINE
8
1
62
4
10
14.934344304251852
20
27.280382259081094
11
13.925112034354427
21
27.129691385972436
0
LINE
8
1
62
4
10
13.925112034354427
20
27.129691385972436
11
12.917406211376239
21
26.96910966790834
0
LINE
8
1
62
4
10
12.917406211376239
20
26.96910966790834
11
11.91132376682478
21
26.79865255128962
0
LINE
8
1
62
4
10
11.91132376682478
20
26.79865255128962
11
10.906961476054384
21
26.61833643243442
0
LINE
8
1
62
4
10
10.906961476054384
20
26.61833643243442
11
9.904415948957233
21
26.42817865600111
0
LINE
8
1
62
4
10
9.904415948957233
20
26.42817865600111
11
8.90378362067051
21
26.228197513319856
0
LINE
8
1
62
4
10
8.90378362067051
20
26.228197513319856
11
7.905160742300321
21
26.01841224063324
0
LINE
8
1
62
4
10
7.905160742300321
20
26.01841224063324
11
6.908643371663132
21
25.798843017245815
0
LINE
8
1
62
4
10
6.908643371663132
20
25.798843017245815
11
5.91432736404612
21
25.569510963583184
0
LINE
8
1
62
4
10
5.91432736404612
20
25.569510963583184
11
4.9223083629866515
21
25.33043813916028
0
LINE
8
1
62
4
10
4.9223083629866515
20
25.33043813916028
11
3.932681791072401
21
25.081647540459585
0
LINE
8
1
62
4
10
3.932681791072401
20
25.081647540459585
11
2.945542840762659
21
24.823163098718993
0
LINE
8
1
62
4
10
2.945542840762659
20
24.823163098718993
11
1.9609864652316418
21
24.555009677629897
0
LINE
8
1
62
4
10
1.9609864652316418
20
24.555009677629897
11
0.9791073692349528
21
24.277213070945564
0
LINE
8
1
62
4
10
0.9791073692349528
20
24.277213070945564
11
0.0
21
23.9898
0
ENDSEC
0
EOF
