999
Created on Tue, 27 Feb 2018 17:37:31
0
SECTION
2
HEADER
9
$ACADVER
1
AC1009
9
$INSBASE
10
0.0
20
0.0
30
0.0
9
$EXTMIN
10
0.0
20
0.0
9
$EXTMAX
10
103.29
20
27.885
0
ENDSEC
0
SECTION
2
TABLES
0
TABLE
2
LTYPE
70
1
0
LTYPE
2
CONTINUOUS
70
64
3
Solid Line
72
65
73
0
40
0.0
0
ENDTAB
0
TABLE
2
LAYER
70
6
0
LAYER
2
1
70
64
62
7
6
CONTINUOUS
0
ENDTAB
0
TABLE
2
STYLE
70
0
0
ENDTAB
0
ENDSEC
0
SECTION
2
BLOCKS
0
ENDSEC
0
SECTION
2
ENTITIES
0
LINE
8
1
62
4
10
0.0
20
23.9898
11
0.26197412717274327
21
22.906543550024054
0
LINE
8
1
62
4
10
0.26197412717274327
20
22.906543550024054
11
0.4154814695728618
21
21.8551270929709
0
LINE
8
1
62
4
10
0.4154814695728618
20
21.8551270929709
11
0.48170106231066034
21
20.82933360738611
0
LINE
8
1
62
4
10
0.48170106231066034
20
20.82933360738611
11
0.4818119404964438
21
19.82294607181527
0
LINE
8
1
62
4
10
0.4818119404964438
20
19.82294607181527
11
0.43699313924051664
21
18.82974746480395
0
LINE
8
1
62
4
10
0.43699313924051664
20
18.82974746480395
11
0.3684236936531837
21
17.84352076489773
0
LINE
8
1
62
4
10
0.3684236936531837
20
17.84352076489773
11
0.2972826388447512
21
16.858048950642186
0
LINE
8
1
62
4
10
0.2972826388447512
20
16.858048950642186
11
8.32639202688404
21
16.326385716160647
0
LINE
8
1
62
4
10
8.32639202688404
20
16.326385716160647
11
0.36938402782191543
21
15.12835104935781
0
LINE
8
1
62
4
10
0.36938402782191543
20
15.12835104935781
11
0.511917115742239
21
14.104663885890693
0
LINE
8
1
62
4
10
0.511917115742239
20
14.104663885890693
11
0.6319687100821801
21
13.084361613914695
0
LINE
8
1
62
4
10
0.6319687100821801
20
13.084361613914695
11
0.7314139239830871
21
12.067161909904723
0
LINE
8
1
62
4
10
0.7314139239830871
20
12.067161909904723
11
0.812127870586308
21
11.052782450335677
0
LINE
8
1
62
4
10
0.812127870586308
20
11.052782450335677
11
0.8759856630331906
21
10.040940911682465
0
LINE
8
1
62
4
10
0.8759856630331906
20
10.040940911682465
11
0.9248624144650834
21
9.03135497041999
0
LINE
8
1
62
4
10
0.9248624144650834
20
9.03135497041999
11
0.9606332380233342
21
8.023742303023155
0
LINE
8
1
62
4
10
0.9606332380233342
20
8.023742303023155
11
0.9851732468492911
21
7.017820585966863
0
LINE
8
1
62
4
10
0.9851732468492911
20
7.017820585966863
11
1.0003575540843022
21
6.013307495726021
0
LINE
8
1
62
4
10
1.0003575540843022
20
6.013307495726021
11
1.0080612728697156
21
5.00992070877553
0
LINE
8
1
62
4
10
1.0080612728697156
20
5.00992070877553
11
1.0101595163468795
21
4.007377901590296
0
LINE
8
1
62
4
10
1.0101595163468795
20
4.007377901590296
11
1.0085273976571418
21
3.0053967506452235
0
LINE
8
1
62
4
10
1.0085273976571418
20
3.0053967506452235
11
1.00504002994185
21
2.003694932415213
0
LINE
8
1
62
4
10
1.00504002994185
20
2.003694932415213
11
1.0015725263423538
21
1.0019901233751707
0
LINE
8
1
62
4
10
1.0015725263423538
20
1.0019901233751707
11
1.0
21
0.0
0
LINE
8
1
62
4
10
1.0
20
0.0
11
103.29
21
0.0
0
LINE
8
1
62
4
10
103.29
20
0.0
11
103.29
21
27.885
0
LINE
8
1
62
4
10
103.29
20
27.885
11
20.0
21
27.885
0
LINE
8
1
62
4
10
20.0
20
27.885
11
18.98459428004556
21
27.78396170169505
0
LINE
8
1
62
4
10
18.98459428004556
20
27.78396170169505
11
17.970228333985183
21
27.672969623988337
0
LINE
8
1
62
4
10
17.970228333985183
20
27.672969623988337
11
16.95699973396556
21
27.552034443239194
0
LINE
8
1
62
4
10
16.95699973396556
20
27.552034443239194
11
15.945005942731658
21
27.421167792236744
0
LINE
8
1
62
4
10
15.945005942731658
20
27.421167792236744
11
14.934344304251852
21
27.280382259081094
0
LINE
8
1
62
4
10
14.934344304251852
20
27.280382259081094
11
13.925112034354427
21
27.129691385972436
0
LINE
8
1
62
4
10
13.925112034354427
20
27.129691385972436
11
12.917406211376239
21
26.96910966790834
0
LINE
8
1
62
4
10
12.917406211376239
20
26.96910966790834
11
11.91132376682478
21
26.79865255128962
0
LINE
8
1
62
4
10
11.91132376682478
20
26.79865255128962
11
10.906961476054384
21
26.61833643243442
0
LINE
8
1
62
4
10
10.906961476054384
20
26.61833643243442
11
9.904415948957233
21
26.42817865600111
0
LINE
8
1
62
4
10
9.904415948957233
20
26.42817865600111
11
8.90378362067051
21
26.228197513319856
0
LINE
8
1
62
4
10
8.90378362067051
20
26.228197513319856
11
7.905160742300321
21
26.01841224063324
0
LINE
8
1
62
4
10
7.905160742300321
20
26.01841224063324
11
6.908643371663132
21
25.798843017245815
0
LINE
8
1
62
4
10
6.908643371663132
20
25.798843017245815
11
5.91432736404612
21
25.569510963583184
0
LINE
8
1
62
4
10
5.91432736404612
20
25.569510963583184
11
4.9223083629866515
21
25.33043813916028
0
LINE
8
1
62
4
10
4.9223083629866515
20
25.33043813916028
11
3.932681791072401
21
25.081647540459585
0
LINE
8
1
62
4
10
3.932681791072401
20
25.081647540459585
11
2.945542840762659
21
24.823163098718993
0
LINE
8
1
62
4
10
2.945542840762659
20
24.823163098718993
11
1.9609864652316418
21
24.555009677629897
0
LINE
8
1
62
4
10
1.9609864652316418
20
24.555009677629897
11
0.9791073692349528
21
24.277213070945564
0
LINE
8
1
62
4
10
0.9791073692349528
20
24.277213070945564
11
0.0
21
23.9898
0
ENDSEC
0
EOF
