999
Created on Thu, 15 Feb 2018 18:18:42
0
SECTION
2
HEADER
9
$INSBASE
10
0.0
20
0.0
30
0.0
9
$EXTMIN
10
0.0
20
0.0
9
$EXTMAX
10
60.0
20
25.0
0
ENDSEC
0
SECTION
2
TABLES
0
TABLE
2
LTYPE
70
1
0
LTYPE
2
CONTINUOUS
70
64
3
Solid Line
72
65
73
0
40
0.0
0
ENDTAB
0
TABLE
2
LAYER
70
6
0
LAYER
2
1
70
64
62
7
6
CONTINUOUS
0
ENDTAB
0
TABLE
2
STYLE
70
0
0
ENDTAB
0
ENDSEC
0
SECTION
2
BLOCKS
0
ENDSEC
0
SECTION
2
ENTITIES
0
LINE
8
1
62
4
10
0.0
20
22.075
11
0.24203078599654565
21
20.928011593031147
0
LINE
8
1
62
4
10
0.24203078599654565
20
20.928011593031147
11
0.4111723561597964
21
19.798794272287513
0
LINE
8
1
62
4
10
0.4111723561597964
20
19.798794272287513
11
0.5180706462895912
21
18.684752457052745
0
LINE
8
1
62
4
10
0.5180706462895912
20
18.684752457052745
11
0.5733715921857685
21
17.58329056661049
0
LINE
8
1
62
4
10
0.5733715921857685
20
17.58329056661049
11
0.5877211296481681
21
16.49181302024439
0
LINE
8
1
62
4
10
0.5877211296481681
20
16.49181302024439
11
0.5717651944766287
21
15.407724237238092
0
LINE
8
1
62
4
10
0.5717651944766287
20
15.407724237238092
11
0.5361497224709884
21
14.328428636875241
0
LINE
8
1
62
4
10
0.5361497224709884
20
14.328428636875241
11
0.49152064943108664
21
13.251330638439486
0
LINE
8
1
62
4
10
0.49152064943108664
20
13.251330638439486
11
0.4485239111567624
21
12.17383466121447
0
LINE
8
1
62
4
10
0.4485239111567624
20
12.17383466121447
11
14.48565736879347
21
11.671051862686001
0
LINE
8
1
62
4
10
14.48565736879347
20
11.671051862686001
11
0.5514760888432375
21
9.90116533878553
0
LINE
8
1
62
4
10
0.5514760888432375
20
9.90116533878553
11
0.6784309065194147
21
8.79124040687071
0
LINE
8
1
62
4
10
0.6784309065194147
20
8.79124040687071
11
0.7789266051965126
21
7.684676249242509
0
LINE
8
1
62
4
10
0.7789266051965126
20
7.684676249242509
11
0.8560400757797457
21
6.581082046545326
0
LINE
8
1
62
4
10
0.8560400757797457
20
6.581082046545326
11
0.9128482091743285
21
5.480066979423563
0
LINE
8
1
62
4
10
0.9128482091743285
20
5.480066979423563
11
0.952427896285476
21
4.381240228521617
0
LINE
8
1
62
4
10
0.952427896285476
20
4.381240228521617
11
0.9778560280184023
21
3.284210974483887
0
LINE
8
1
62
4
10
0.9778560280184023
20
3.284210974483887
11
0.9922094952783224
21
2.1885883979547742
0
LINE
8
1
62
4
10
0.9922094952783224
20
2.1885883979547742
11
0.9985651889704501
21
1.093981679578679
0
LINE
8
1
62
4
10
0.9985651889704501
20
1.093981679578679
11
1.0
21
0.0
0
LINE
8
1
62
4
10
1.0
20
0.0
11
60.0
21
0.0
0
LINE
8
1
62
4
10
60.0
20
0.0
11
60.0
21
25.0
0
LINE
8
1
62
4
10
60.0
20
25.0
11
20.0
21
25.0
0
LINE
8
1
62
4
10
20.0
20
25.0
11
18.98904941679031
21
24.948095721366613
0
LINE
8
1
62
4
10
18.98904941679031
20
24.948095721366613
11
17.97866139417048
21
24.886199198210377
0
LINE
8
1
62
4
10
17.97866139417048
20
24.886199198210377
11
16.96893469315281
21
24.814316480645843
0
LINE
8
1
62
4
10
16.96893469315281
20
24.814316480645843
11
15.959968010108385
21
24.732454594894435
0
LINE
8
1
62
4
10
15.959968010108385
20
24.732454594894435
11
14.951859967119772
21
24.64062154259763
0
LINE
8
1
62
4
10
14.951859967119772
20
24.64062154259763
11
13.9447091023413
21
24.53882630003484
0
LINE
8
1
62
4
10
13.9447091023413
20
24.53882630003484
11
12.938613860367237
21
24.427078817246027
0
LINE
8
1
62
4
10
12.938613860367237
20
24.427078817246027
11
11.93367258260942
21
24.305390017059125
0
LINE
8
1
62
4
10
11.93367258260942
20
24.305390017059125
11
10.929983497684638
21
24.17377179402243
0
LINE
8
1
62
4
10
10.929983497684638
20
24.17377179402243
11
9.927644711813398
21
24.03223701324184
0
LINE
8
1
62
4
10
9.927644711813398
20
24.03223701324184
11
8.926754199230286
21
23.880799509123477
0
LINE
8
1
62
4
10
8.926754199230286
20
23.880799509123477
11
7.927409792607566
21
23.719474084021357
0
LINE
8
1
62
4
10
7.927409792607566
20
23.719474084021357
11
6.929709173492419
21
23.54827650679057
0
LINE
8
1
62
4
10
6.929709173492419
20
23.54827650679057
11
5.933749862758901
21
23.36722351124591
0
LINE
8
1
62
4
10
5.933749862758901
20
23.36722351124591
11
4.939629211075879
21
23.176332794526203
0
LINE
8
1
62
4
10
4.939629211075879
20
23.176332794526203
11
3.9474443893912436
21
22.97562301536456
0
LINE
8
1
62
4
10
3.9474443893912436
20
22.97562301536456
11
2.9572923794340653
21
22.765113792264486
0
LINE
8
1
62
4
10
2.9572923794340653
20
22.765113792264486
11
1.9692699642348508
21
22.544825701582297
0
LINE
8
1
62
4
10
1.9692699642348508
20
22.544825701582297
11
0.9834737186656355
21
22.314780275515886
0
LINE
8
1
62
4
10
0.9834737186656355
20
22.314780275515886
11
0.0
21
22.075
0
ENDSEC
0
EOF
