999
Created on Thu, 15 Feb 2018 18:18:42
0
SECTION
2
HEADER
9
$INSBASE
10
0.0
20
0.0
30
0.0
9
$EXTMIN
10
0.0
20
0.0
9
$EXTMAX
10
60.0
20
25.0
0
ENDSEC
0
SECTION
2
TABLES
0
TABLE
2
LTYPE
70
1
0
LTYPE
2
CONTINUOUS
70
64
3
Solid Line
72
65
73
0
40
0.0
0
ENDTAB
0
TABLE
2
LAYER
70
6
0
LAYER
2
1
70
64
62
7
6
CONTINUOUS
0
ENDTAB
0
TABLE
2
STYLE
70
0
0
ENDTAB
0
ENDSEC
0
SECTION
2
BLOCKS
0
ENDSEC
0
SECTION
2
ENTITIES
0
LINE
8
1
62
4
10
0.0
20
22.075
11
0.2270270573102029
21
20.913831799203003
0
LINE
8
1
62
4
10
0.2270270573102029
20
20.913831799203003
11
0.3510430796701325
21
19.777778671511435
0
LINE
8
1
62
4
10
0.3510430796701325
20
19.777778671511435
11
0.39639414737057843
21
18.66090481027478
0
LINE
8
1
62
4
10
0.39639414737057843
20
18.66090481027478
11
0.3874263407023306
21
17.557274408842535
0
LINE
8
1
62
4
10
0.3874263407023306
20
17.557274408842535
11
0.3484857399561785
21
16.460951660564184
0
LINE
8
1
62
4
10
0.3484857399561785
20
16.460951660564184
11
0.30391842542291186
21
15.366000758789221
0
LINE
8
1
62
4
10
0.30391842542291186
20
15.366000758789221
11
8.32513754407246
21
15.07869630248724
0
LINE
8
1
62
4
10
8.32513754407246
20
15.07869630248724
11
0.36274824124375477
21
14.067332574544112
0
LINE
8
1
62
4
10
0.36274824124375477
20
14.067332574544112
11
0.48324562417515393
21
13.052999400077923
0
LINE
8
1
62
4
10
0.48324562417515393
20
13.052999400077923
11
0.5875621239744919
21
12.040721482854686
0
LINE
8
1
62
4
10
0.5875621239744919
20
12.040721482854686
11
0.6768591383415883
21
11.030351304904276
0
LINE
8
1
62
4
10
0.6768591383415883
20
11.030351304904276
11
0.7522980649762621
21
10.021741348256564
0
LINE
8
1
62
4
10
0.7522980649762621
20
10.021741348256564
11
0.8150403015783323
21
9.014744094941426
0
LINE
8
1
62
4
10
0.8150403015783323
20
9.014744094941426
11
0.8662472458476189
21
8.009212026988733
0
LINE
8
1
62
4
10
0.8662472458476189
20
8.009212026988733
11
0.9070802954839408
21
7.004997626428358
0
LINE
8
1
62
4
10
0.9070802954839408
20
7.004997626428358
11
0.9387008481871173
21
6.001953375290176
0
LINE
8
1
62
4
10
0.9387008481871173
20
6.001953375290176
11
0.9622703016569674
21
4.999931755604058
0
LINE
8
1
62
4
10
0.9622703016569674
20
4.999931755604058
11
0.9789500535933107
21
3.99878524939988
0
LINE
8
1
62
4
10
0.9789500535933107
20
3.99878524939988
11
0.9899015016959667
21
2.998366338707511
0
LINE
8
1
62
4
10
0.9899015016959667
20
2.998366338707511
11
0.9962860436647543
21
1.998527505556826
0
LINE
8
1
62
4
10
0.9962860436647543
20
1.998527505556826
11
0.9992650771994924
21
0.9991212319776981
0
LINE
8
1
62
4
10
0.9992650771994924
20
0.9991212319776981
11
1.0
21
0.0
0
LINE
8
1
62
4
10
1.0
20
0.0
11
60.0
21
0.0
0
LINE
8
1
62
4
10
60.0
20
0.0
11
60.0
21
25.0
0
LINE
8
1
62
4
10
60.0
20
25.0
11
20.0
21
25.0
0
LINE
8
1
62
4
10
20.0
20
25.0
11
18.98904941679031
21
24.948095721366613
0
LINE
8
1
62
4
10
18.98904941679031
20
24.948095721366613
11
17.97866139417048
21
24.886199198210377
0
LINE
8
1
62
4
10
17.97866139417048
20
24.886199198210377
11
16.96893469315281
21
24.814316480645843
0
LINE
8
1
62
4
10
16.96893469315281
20
24.814316480645843
11
15.959968010108385
21
24.732454594894435
0
LINE
8
1
62
4
10
15.959968010108385
20
24.732454594894435
11
14.951859967119772
21
24.64062154259763
0
LINE
8
1
62
4
10
14.951859967119772
20
24.64062154259763
11
13.9447091023413
21
24.53882630003484
0
LINE
8
1
62
4
10
13.9447091023413
20
24.53882630003484
11
12.938613860367237
21
24.427078817246027
0
LINE
8
1
62
4
10
12.938613860367237
20
24.427078817246027
11
11.93367258260942
21
24.305390017059125
0
LINE
8
1
62
4
10
11.93367258260942
20
24.305390017059125
11
10.929983497684638
21
24.17377179402243
0
LINE
8
1
62
4
10
10.929983497684638
20
24.17377179402243
11
9.927644711813398
21
24.03223701324184
0
LINE
8
1
62
4
10
9.927644711813398
20
24.03223701324184
11
8.926754199230286
21
23.880799509123477
0
LINE
8
1
62
4
10
8.926754199230286
20
23.880799509123477
11
7.927409792607566
21
23.719474084021357
0
LINE
8
1
62
4
10
7.927409792607566
20
23.719474084021357
11
6.929709173492419
21
23.54827650679057
0
LINE
8
1
62
4
10
6.929709173492419
20
23.54827650679057
11
5.933749862758901
21
23.36722351124591
0
LINE
8
1
62
4
10
5.933749862758901
20
23.36722351124591
11
4.939629211075879
21
23.176332794526203
0
LINE
8
1
62
4
10
4.939629211075879
20
23.176332794526203
11
3.9474443893912436
21
22.97562301536456
0
LINE
8
1
62
4
10
3.9474443893912436
20
22.97562301536456
11
2.9572923794340653
21
22.765113792264486
0
LINE
8
1
62
4
10
2.9572923794340653
20
22.765113792264486
11
1.9692699642348508
21
22.544825701582297
0
LINE
8
1
62
4
10
1.9692699642348508
20
22.544825701582297
11
0.9834737186656355
21
22.314780275515886
0
LINE
8
1
62
4
10
0.9834737186656355
20
22.314780275515886
11
0.0
21
22.075
0
ENDSEC
0
EOF
