999
Created on Thu, 15 Feb 2018 18:18:42
0
SECTION
2
HEADER
9
$INSBASE
10
0.0
20
0.0
30
0.0
9
$EXTMIN
10
0.0
20
0.0
9
$EXTMAX
10
100.0
20
29.5
0
ENDSEC
0
SECTION
2
TABLES
0
TABLE
2
LTYPE
70
1
0
LTYPE
2
CONTINUOUS
70
64
3
Solid Line
72
65
73
0
40
0.0
0
ENDTAB
0
TABLE
2
LAYER
70
6
0
LAYER
2
1
70
64
62
7
6
CONTINUOUS
0
ENDTAB
0
TABLE
2
STYLE
70
0
0
ENDTAB
0
ENDSEC
0
SECTION
2
BLOCKS
0
ENDSEC
0
SECTION
2
ENTITIES
0
LINE
8
1
62
4
10
0.0
20
6.0
11
20.0
21
5.5
0
LINE
8
1
62
4
10
20.0
20
5.5
11
21.03966900925854
21
5.507176251154151
0
LINE
8
1
62
4
10
21.03966900925854
20
5.507176251154151
11
22.079903481619304
21
5.53697102639741
0
LINE
8
1
62
4
10
22.079903481619304
20
5.53697102639741
11
23.1190655672845
21
5.523870333817871
0
LINE
8
1
62
4
10
23.1190655672845
20
5.523870333817871
11
24.155517416456327
21
5.402360181503629
0
LINE
8
1
62
4
10
24.155517416456327
20
5.402360181503629
11
25.187621179336993
21
5.106926577542778
0
LINE
8
1
62
4
10
25.187621179336993
20
5.106926577542778
11
26.21373900612869
21
4.572055530023414
0
LINE
8
1
62
4
10
26.21373900612869
20
4.572055530023414
11
27.23223304703363
21
3.732233047033631
0
LINE
8
1
62
4
10
27.23223304703363
20
3.732233047033631
11
27.85653682891879
21
2.9815368289187925
0
LINE
8
1
62
4
10
27.85653682891879
20
2.9815368289187925
11
28.356857044807924
21
2.106857044807925
0
LINE
8
1
62
4
10
28.356857044807924
20
2.106857044807925
11
28.736807000051503
21
1.111807000051503
0
LINE
8
1
62
4
10
28.736807000051503
20
1.111807000051503
11
29.0
21
0.0
0
LINE
8
1
62
4
10
29.0
20
0.0
11
29.99175771727613
21
0.1747854614245341
0
LINE
8
1
62
4
10
29.99175771727613
20
0.1747854614245341
11
30.984229629825435
21
0.3454688821279319
0
LINE
8
1
62
4
10
30.984229629825435
20
0.3454688821279319
11
31.97739877114107
21
0.5120473442428306
0
LINE
8
1
62
4
10
31.97739877114107
20
0.5120473442428306
11
32.97124816279713
21
0.6745180000769722
0
LINE
8
1
62
4
10
32.97124816279713
20
0.6745180000769722
11
33.9657608147385
21
0.8328780721618045
0
LINE
8
1
62
4
10
33.9657608147385
20
0.8328780721618045
11
34.960919725571664
21
0.9871248533001733
0
LINE
8
1
62
4
10
34.960919725571664
20
0.9871248533001733
11
35.95670788285517
21
1.137255706612308
0
LINE
8
1
62
4
10
35.95670788285517
20
1.137255706612308
11
36.9531082633903
21
1.283268065581069
0
LINE
8
1
62
4
10
36.9531082633903
20
1.283268065581069
11
37.95010383351244
21
1.4251594340959173
0
LINE
8
1
62
4
10
37.95010383351244
20
1.4251594340959173
11
38.94767754938208
21
1.562927386495403
0
LINE
8
1
62
4
10
38.94767754938208
20
1.562927386495403
11
39.945812357276026
21
1.6965695676086625
0
LINE
8
1
62
4
10
39.945812357276026
20
1.6965695676086625
11
40.944491193879315
21
1.8260836927957484
0
LINE
8
1
62
4
10
40.944491193879315
20
1.8260836927957484
11
41.94369698657651
21
1.9514675479867094
0
LINE
8
1
62
4
10
41.94369698657651
20
1.9514675479867094
11
42.943412653743906
21
2.0727189897193625
0
LINE
8
1
62
4
10
42.943412653743906
20
2.0727189897193625
11
43.94362110504137
21
2.1898359451759575
0
LINE
8
1
62
4
10
43.94362110504137
20
2.1898359451759575
11
44.9443052417044
21
2.302816412218533
0
LINE
8
1
62
4
10
44.9443052417044
20
2.302816412218533
11
45.945447956836745
21
2.411658459423421
0
LINE
8
1
62
4
10
45.945447956836745
20
2.411658459423421
11
46.94703213570244
21
2.516360226113875
0
LINE
8
1
62
4
10
46.94703213570244
20
2.516360226113875
11
47.949040656018816
21
2.6169199223921566
0
LINE
8
1
62
4
10
47.949040656018816
20
2.6169199223921566
11
48.95145638824896
21
2.71333582917012
0
LINE
8
1
62
4
10
48.95145638824896
20
2.71333582917012
11
49.95426219589443
21
2.805606298198427
0
LINE
8
1
62
4
10
49.95426219589443
20
2.805606298198427
11
50.95744093578854
21
2.8937297520948277
0
LINE
8
1
62
4
10
50.95744093578854
20
2.8937297520948277
11
51.96097545838927
21
2.9777046843712753
0
LINE
8
1
62
4
10
51.96097545838927
20
2.9777046843712753
11
52.964848608072224
21
3.057529659459391
0
LINE
8
1
62
4
10
52.964848608072224
20
3.057529659459391
11
53.969043223424336
21
3.1332033127351337
0
LINE
8
1
62
4
10
53.969043223424336
20
3.1332033127351337
11
54.97354213753684
21
3.204724350542307
0
LINE
8
1
62
4
10
54.97354213753684
20
3.204724350542307
11
55.978328178299016
21
3.2720915502142986
0
LINE
8
1
62
4
10
55.978328178299016
20
3.2720915502142986
11
56.983384168691714
21
3.3353037600953144
0
LINE
8
1
62
4
10
56.983384168691714
20
3.3353037600953144
11
57.98869292708076
21
3.394359899559987
0
LINE
8
1
62
4
10
57.98869292708076
20
3.394359899559987
11
58.99423726751107
21
3.449258959031681
0
LINE
8
1
62
4
10
58.99423726751107
20
3.449258959031681
11
60.0
21
3.5
0
LINE
8
1
62
4
10
60.0
20
3.5
11
100.0
21
3.5
0
LINE
8
1
62
4
10
100.0
20
3.5
11
100.0
21
27.5
0
LINE
8
1
62
4
10
100.0
20
27.5
11
60.0
21
27.5
0
LINE
8
1
62
4
10
60.0
20
27.5
11
29.0
21
29.5
0
LINE
8
1
62
4
10
29.0
20
29.5
11
20.0
21
29.5
0
LINE
8
1
62
4
10
20.0
20
29.5
11
10.0
21
29.0
0
LINE
8
1
62
4
10
10.0
20
29.0
11
0.0
21
28.0
0
LINE
8
1
62
4
10
0.0
20
28.0
11
0.0
21
22.75
0
LINE
8
1
62
4
10
0.0
20
22.75
11
10.0
21
21.75
0
LINE
8
1
62
4
10
10.0
20
21.75
11
0.0
21
20.75
0
LINE
8
1
62
4
10
0.0
20
20.75
11
0.0
21
16.5
0
LINE
8
1
62
4
10
0.0
20
16.5
11
10.0
21
15.5
0
LINE
8
1
62
4
10
10.0
20
15.5
11
0.0
21
14.5
0
LINE
8
1
62
4
10
0.0
20
14.5
11
0.0
21
6.0
0
ENDSEC
0
EOF
