999
Created on Tue, 27 Feb 2018 17:37:32
0
SECTION
2
HEADER
9
$ACADVER
1
AC1009
9
$INSBASE
10
0.0
20
0.0
30
0.0
9
$EXTMIN
10
-1.0
20
0.0
9
$EXTMAX
10
104.37
20
41.539
0
ENDSEC
0
SECTION
2
TABLES
0
TABLE
2
LTYPE
70
1
0
LTYPE
2
CONTINUOUS
70
64
3
Solid Line
72
65
73
0
40
0.0
0
ENDTAB
0
TABLE
2
LAYER
70
6
0
LAYER
2
1
70
64
62
7
6
CONTINUOUS
0
ENDTAB
0
TABLE
2
STYLE
70
0
0
ENDTAB
0
ENDSEC
0
SECTION
2
BLOCKS
0
ENDSEC
0
SECTION
2
ENTITIES
0
LINE
8
1
62
4
10
-1.0
20
14.654
11
20.0
21
12.654
0
LINE
8
1
62
4
10
20.0
20
12.654
11
21.004429201199216
21
12.579441364565554
0
LINE
8
1
62
4
10
21.004429201199216
20
12.579441364565554
11
22.009631074342728
21
12.512995784546249
0
LINE
8
1
62
4
10
22.009631074342728
20
12.512995784546249
11
23.010789880493842
21
12.404098001106757
0
LINE
8
1
62
4
10
23.010789880493842
20
12.404098001106757
11
24.003089880715862
21
12.20218275541175
0
LINE
8
1
62
4
10
24.003089880715862
20
12.20218275541175
11
24.981715336072085
21
11.8566847886259
0
LINE
8
1
62
4
10
24.981715336072085
20
11.8566847886259
11
25.941850507625816
21
11.31703884191388
0
LINE
8
1
62
4
10
25.941850507625816
20
11.31703884191388
11
26.878679656440358
21
10.532679656440358
0
LINE
8
1
62
4
10
26.878679656440358
20
10.532679656440358
11
27.527562581629574
21
9.816162581629575
0
LINE
8
1
62
4
10
27.527562581629574
20
9.816162581629575
11
28.107371480862284
21
9.030571480862285
0
LINE
8
1
62
4
10
28.107371480862284
20
9.030571480862285
11
28.615946539636074
21
8.173746539636074
0
LINE
8
1
62
4
10
28.615946539636074
20
8.173746539636074
11
29.051127943448527
21
7.243527943448527
0
LINE
8
1
62
4
10
29.051127943448527
20
7.243527943448527
11
29.41075587779723
21
6.2377558777972295
0
LINE
8
1
62
4
10
29.41075587779723
20
6.2377558777972295
11
29.692670528179768
21
5.154270528179769
0
LINE
8
1
62
4
10
29.692670528179768
20
5.154270528179769
11
29.89471208009373
21
3.9909120800937297
0
LINE
8
1
62
4
10
29.89471208009373
20
3.9909120800937297
11
30.014720719036696
21
2.7455207190366986
0
LINE
8
1
62
4
10
30.014720719036696
20
2.7455207190366986
11
30.050536630506258
21
1.415936630506259
0
LINE
8
1
62
4
10
30.050536630506258
20
1.415936630506259
11
30.0
21
0.0
0
LINE
8
1
62
4
10
30.0
20
0.0
11
30.99238926317588
21
0.198278044675817
0
LINE
8
1
62
4
10
30.99238926317588
20
0.198278044675817
11
31.985217501929952
21
0.39434619864130127
0
LINE
8
1
62
4
10
31.985217501929952
20
0.39434619864130127
11
32.978479795198865
21
0.5882034900628241
0
LINE
8
1
62
4
10
32.978479795198865
20
0.5882034900628241
11
33.97217121976752
21
0.7798489580653154
0
LINE
8
1
62
4
10
33.97217121976752
20
0.7798489580653154
11
34.96628685029383
21
0.9692816527365835
0
LINE
8
1
62
4
10
34.96628685029383
20
0.9692816527365835
11
35.96082175933303
21
1.1565006351324314
0
LINE
8
1
62
4
10
35.96082175933303
20
1.1565006351324314
11
36.95577101736244
21
1.3415049772811471
0
LINE
8
1
62
4
10
36.95577101736244
20
1.3415049772811471
11
37.951129692805296
21
1.5242937621881083
0
LINE
8
1
62
4
10
37.951129692805296
20
1.5242937621881083
11
38.946892852055555
21
1.7048660838403862
0
LINE
8
1
62
4
10
38.946892852055555
20
1.7048660838403862
11
39.94305555950254
21
1.8832210472112934
0
LINE
8
1
62
4
10
39.94305555950254
20
1.8832210472112934
11
40.93961287755492
21
2.0593577682644764
0
LINE
8
1
62
4
10
40.93961287755492
20
2.0593577682644764
11
41.936559866665434
21
2.2332753739587474
0
LINE
8
1
62
4
10
41.936559866665434
20
2.2332753739587474
11
42.93389158535564
21
2.404973002252177
0
LINE
8
1
62
4
10
42.93389158535564
20
2.404973002252177
11
43.93160309023986
21
2.574449802106301
0
LINE
8
1
62
4
10
43.93160309023986
20
2.574449802106301
11
44.929689436049955
21
2.7417049334905528
0
LINE
8
1
62
4
10
44.929689436049955
20
2.7417049334905528
11
45.92814567566019
21
2.906737567386358
0
LINE
8
1
62
4
10
45.92814567566019
20
2.906737567386358
11
46.92696686011101
21
3.069546885790942
0
LINE
8
1
62
4
10
46.92696686011101
20
3.069546885790942
11
47.92614803863418
21
3.2301320817219334
0
LINE
8
1
62
4
10
47.92614803863418
20
3.2301320817219334
11
48.92568425867695
21
3.3884923592208906
0
LINE
8
1
62
4
10
48.92568425867695
20
3.3884923592208906
11
49.925570565927075
21
3.5446269333576197
0
LINE
8
1
62
4
10
49.925570565927075
20
3.5446269333576197
11
50.92580200433679
21
3.698535030233529
0
LINE
8
1
62
4
10
50.92580200433679
20
3.698535030233529
11
51.92637361614763
21
3.8502158869861773
0
LINE
8
1
62
4
10
51.92637361614763
20
3.8502158869861773
11
52.927280441915315
21
3.9996687517924556
0
LINE
8
1
62
4
10
52.927280441915315
20
3.9996687517924556
11
53.928517520533745
21
4.146892883872681
0
LINE
8
1
62
4
10
53.928517520533745
20
4.146892883872681
11
54.9300798892599
21
4.29188755349395
0
LINE
8
1
62
4
10
54.9300798892599
20
4.29188755349395
11
55.931962583738716
21
4.434652041974175
0
LINE
8
1
62
4
10
55.931962583738716
20
4.434652041974175
11
56.93416063802708
21
4.575185641685209
0
LINE
8
1
62
4
10
56.93416063802708
20
4.575185641685209
11
57.936669084618885
21
4.7134876560567704
0
LINE
8
1
62
4
10
57.936669084618885
20
4.7134876560567704
11
58.939482954469426
21
4.849557399579396
0
LINE
8
1
62
4
10
58.939482954469426
20
4.849557399579396
11
59.94259727702043
21
4.983394197808366
0
LINE
8
1
62
4
10
59.94259727702043
20
4.983394197808366
11
60.94600708022411
21
5.1149973873666
0
LINE
8
1
62
4
10
60.94600708022411
20
5.1149973873666
11
61.949707390568065
21
5.244366315948298
0
LINE
8
1
62
4
10
61.949707390568065
20
5.244366315948298
11
62.95369323310029
21
5.371500342322122
0
LINE
8
1
62
4
10
62.95369323310029
20
5.371500342322122
11
63.95795963145319
21
5.496398836333924
0
LINE
8
1
62
4
10
63.95795963145319
20
5.496398836333924
11
64.9625016078686
21
5.619061178910499
0
LINE
8
1
62
4
10
64.9625016078686
20
5.619061178910499
11
65.96731418322267
21
5.739486762062313
0
LINE
8
1
62
4
10
65.96731418322267
20
5.739486762062313
11
66.97239237705003
21
5.857674988886686
0
LINE
8
1
62
4
10
66.97239237705003
20
5.857674988886686
11
67.97773120756884
21
5.973625273570292
0
LINE
8
1
62
4
10
67.97773120756884
20
5.973625273570292
11
68.98332569170526
21
6.0873370413928
0
LINE
8
1
62
4
10
68.98332569170526
20
6.0873370413928
11
69.98917084511862
21
6.198809728729202
0
LINE
8
1
62
4
10
69.98917084511862
20
6.198809728729202
11
70.99526168222545
21
6.308042783052656
0
LINE
8
1
62
4
10
70.99526168222545
20
6.308042783052656
11
72.0015932162245
21
6.415035662937441
0
LINE
8
1
62
4
10
72.0015932162245
20
6.415035662937441
11
73.00816045912185
21
6.519787838061404
0
LINE
8
1
62
4
10
73.00816045912185
20
6.519787838061404
11
74.01495842175487
21
6.622298789208685
0
LINE
8
1
62
4
10
74.01495842175487
20
6.622298789208685
11
75.02198211381742
21
6.722568008272447
0
LINE
8
1
62
4
10
75.02198211381742
20
6.722568008272447
11
76.02922654388476
21
6.82059499825715
0
LINE
8
1
62
4
10
76.02922654388476
20
6.82059499825715
11
77.03668671943777
21
6.916379273281166
0
LINE
8
1
62
4
10
77.03668671943777
20
6.916379273281166
11
78.04435764688802
21
7.009920358578881
0
LINE
8
1
62
4
10
78.04435764688802
20
7.009920358578881
11
79.0522343316024
21
7.101217790503711
0
LINE
8
1
62
4
10
79.0522343316024
20
7.101217790503711
11
80.06031177792826
21
7.190271116529686
0
LINE
8
1
62
4
10
80.06031177792826
20
7.190271116529686
11
81.0685849892175
21
7.277079895254133
0
LINE
8
1
62
4
10
81.0685849892175
20
7.277079895254133
11
82.07704896785171
21
7.361643696399597
0
LINE
8
1
62
4
10
82.07704896785171
20
7.361643696399597
11
83.08569871526726
21
7.44396210081635
0
LINE
8
1
62
4
10
83.08569871526726
20
7.44396210081635
11
84.09452923197937
21
7.524034700483867
0
LINE
8
1
62
4
10
84.09452923197937
20
7.524034700483867
11
85.1035355176073
21
7.601861098513552
0
LINE
8
1
62
4
10
85.1035355176073
20
7.601861098513552
11
86.11271257089936
21
7.677440909150221
0
LINE
8
1
62
4
10
86.11271257089936
20
7.677440909150221
11
87.12205538975718
21
7.750773757774027
0
LINE
8
1
62
4
10
87.12205538975718
20
7.750773757774027
11
88.13155897126083
21
7.821859280902686
0
LINE
8
1
62
4
10
88.13155897126083
20
7.821859280902686
11
89.14121831169341
21
7.890697126192663
0
LINE
8
1
62
4
10
89.14121831169341
20
7.890697126192663
11
90.15102840656633
21
7.957286952441791
0
LINE
8
1
62
4
10
90.15102840656633
20
7.957286952441791
11
91.16098425064345
21
8.021628429590066
0
LINE
8
1
62
4
10
91.16098425064345
20
8.021628429590066
11
92.1710808379662
21
8.08372123872175
0
LINE
8
1
62
4
10
92.1710808379662
20
8.08372123872175
11
93.18131316187872
21
8.14356507206702
0
LINE
8
1
62
4
10
93.18131316187872
20
8.14356507206702
11
94.19167621505204
21
8.201159633003272
0
LINE
8
1
62
4
10
94.19167621505204
20
8.201159633003272
11
95.20216498950931
21
8.256504636056604
0
LINE
8
1
62
4
10
95.20216498950931
20
8.256504636056604
11
96.21277447665047
21
8.309599806903293
0
LINE
8
1
62
4
10
96.21277447665047
20
8.309599806903293
11
97.22349966727737
21
8.360444882371326
0
LINE
8
1
62
4
10
97.22349966727737
20
8.360444882371326
11
98.23433555161802
21
8.409039610441425
0
LINE
8
1
62
4
10
98.23433555161802
20
8.409039610441425
11
99.24527711935212
21
8.455383750248359
0
LINE
8
1
62
4
10
99.24527711935212
20
8.455383750248359
11
100.25631935963528
21
8.499477072082243
0
LINE
8
1
62
4
10
100.25631935963528
20
8.499477072082243
11
101.26745726112418
21
8.541319357389739
0
LINE
8
1
62
4
10
101.26745726112418
20
8.541319357389739
11
102.27868581200127
21
8.58091039877479
0
LINE
8
1
62
4
10
102.27868581200127
20
8.58091039877479
11
103.29
21
8.61825
0
LINE
8
1
62
4
10
103.29
20
8.61825
11
104.37
21
8.61825
0
LINE
8
1
62
4
10
104.37
20
8.61825
11
104.37
21
36.997749999999996
0
LINE
8
1
62
4
10
104.37
20
36.997749999999996
11
103.29
21
36.997749999999996
0
LINE
8
1
62
4
10
103.29
20
36.997749999999996
11
29.0
21
41.539
0
LINE
8
1
62
4
10
29.0
20
41.539
11
20.0
21
41.539
0
LINE
8
1
62
4
10
20.0
20
41.539
11
0.0
21
39.36277255146439
0
LINE
8
1
62
4
10
0.0
20
39.36277255146439
11
-0.26317414778537007
21
32.86006239241021
0
LINE
8
1
62
4
10
-0.26317414778537007
20
32.86006239241021
11
12.675644371727634
21
31.085386275732194
0
LINE
8
1
62
4
10
12.675644371727634
20
31.085386275732194
11
-0.3642700271173285
21
30.362107304106555
0
LINE
8
1
62
4
10
-0.3642700271173285
20
30.362107304106555
11
-0.5948988239178902
21
24.663552820143575
0
LINE
8
1
62
4
10
-0.5948988239178902
20
24.663552820143575
11
14.342283766238033
21
22.808
0
LINE
8
1
62
4
10
14.342283766238033
20
22.808
11
-0.6959947032498487
21
22.165597731839927
0
LINE
8
1
62
4
10
-0.6959947032498487
20
22.165597731839927
11
-1.0
21
14.654
0
ENDSEC
0
EOF
