999
Created on Tue, 27 Feb 2018 17:37:31
0
SECTION
2
HEADER
9
$ACADVER
1
AC1009
9
$INSBASE
10
0.0
20
0.0
30
0.0
9
$EXTMIN
10
0.0
20
0.0
9
$EXTMAX
10
104.37
20
32.962
0
ENDSEC
0
SECTION
2
TABLES
0
TABLE
2
LTYPE
70
1
0
LTYPE
2
CONTINUOUS
70
64
3
Solid Line
72
65
73
0
40
0.0
0
ENDTAB
0
TABLE
2
LAYER
70
6
0
LAYER
2
1
70
64
62
7
6
CONTINUOUS
0
ENDTAB
0
TABLE
2
STYLE
70
0
0
ENDTAB
0
ENDSEC
0
SECTION
2
BLOCKS
0
ENDSEC
0
SECTION
2
ENTITIES
0
LINE
8
1
62
4
10
0.0
20
6.577000000000002
11
20.0
21
6.077000000000002
0
LINE
8
1
62
4
10
20.0
20
6.077000000000002
11
21.03966900925854
21
6.084176251154153
0
LINE
8
1
62
4
10
21.03966900925854
20
6.084176251154153
11
22.079903481619304
21
6.113971026397412
0
LINE
8
1
62
4
10
22.079903481619304
20
6.113971026397412
11
23.1190655672845
21
6.1008703338178725
0
LINE
8
1
62
4
10
23.1190655672845
20
6.1008703338178725
11
24.155517416456327
21
5.979360181503631
0
LINE
8
1
62
4
10
24.155517416456327
20
5.979360181503631
11
25.187621179336993
21
5.683926577542779
0
LINE
8
1
62
4
10
25.187621179336993
20
5.683926577542779
11
26.21373900612869
21
5.149055530023416
0
LINE
8
1
62
4
10
26.21373900612869
20
5.149055530023416
11
27.23223304703363
21
4.309233047033633
0
LINE
8
1
62
4
10
27.23223304703363
20
4.309233047033633
11
27.911133468834926
21
3.468883468834928
0
LINE
8
1
62
4
10
27.911133468834926
20
3.468883468834928
11
28.430323084584284
21
2.468823084584285
0
LINE
8
1
62
4
10
28.430323084584284
20
2.468823084584285
11
28.792409419799906
21
1.3116594197999079
0
LINE
8
1
62
4
10
28.792409419799906
20
1.3116594197999079
11
29.0
21
0.0
0
LINE
8
1
62
4
10
29.0
20
0.0
11
30.001882219382026
21
0.09470838394736347
0
LINE
8
1
62
4
10
30.001882219382026
20
0.09470838394736347
11
31.00383292319981
21
0.18868948110298334
0
LINE
8
1
62
4
10
31.00383292319981
20
0.18868948110298334
11
32.00585158350155
21
0.28194324194510045
0
LINE
8
1
62
4
10
32.00585158350155
20
0.28194324194510045
11
33.00793767229854
21
0.37446961733667194
0
LINE
8
1
62
4
10
33.00793767229854
20
0.37446961733667194
11
34.01009066156743
21
0.46626855852309745
0
LINE
8
1
62
4
10
34.01009066156743
20
0.46626855852309745
11
35.012310023249356
21
0.5573400171331286
0
LINE
8
1
62
4
10
35.012310023249356
20
0.5573400171331286
11
36.014595229250816
21
0.6476839451790966
0
LINE
8
1
62
4
10
36.014595229250816
20
0.6476839451790966
11
37.01694575144258
21
0.7373002950566843
0
LINE
8
1
62
4
10
37.01694575144258
20
0.7373002950566843
11
38.01936106166205
21
0.8261890195446995
0
LINE
8
1
62
4
10
38.01936106166205
20
0.8261890195446995
11
39.02184063171211
21
0.9143500718057567
0
LINE
8
1
62
4
10
39.02184063171211
20
0.9143500718057567
11
40.02438393336212
21
1.0017834053851402
0
LINE
8
1
62
4
10
40.02438393336212
20
1.0017834053851402
11
41.02699043834693
21
1.0884889742126234
0
LINE
8
1
62
4
10
41.02699043834693
20
1.0884889742126234
11
42.02965961836897
21
1.1744667326006493
0
LINE
8
1
62
4
10
42.02965961836897
20
1.1744667326006493
11
43.03239094509739
21
1.2597166352456952
0
LINE
8
1
62
4
10
43.03239094509739
20
1.2597166352456952
11
44.0351838901686
21
1.3442386372271358
0
LINE
8
1
62
4
10
44.0351838901686
20
1.3442386372271358
11
45.038037925186785
21
1.4280326940083796
0
LINE
8
1
62
4
10
45.038037925186785
20
1.4280326940083796
11
46.04095252172307
21
1.5110987614364149
0
LINE
8
1
62
4
10
46.04095252172307
20
1.5110987614364149
11
47.043927151317604
21
1.5934367957415816
0
LINE
8
1
62
4
10
47.043927151317604
20
1.5934367957415816
11
48.04696128547852
21
1.6750467535380267
0
LINE
8
1
62
4
10
48.04696128547852
20
1.6750467535380267
11
49.050054395683006
21
1.7559285918237038
0
LINE
8
1
62
4
10
49.050054395683006
20
1.7559285918237038
11
50.05320595337618
21
1.8360822679794637
0
LINE
8
1
62
4
10
50.05320595337618
20
1.8360822679794637
11
51.056415429973285
21
1.9155077397706464
0
LINE
8
1
62
4
10
51.056415429973285
20
1.9155077397706464
11
52.05968229685877
21
1.9942049653463982
0
LINE
8
1
62
4
10
52.05968229685877
20
1.9942049653463982
11
53.06300602538715
21
2.072173903238536
0
LINE
8
1
62
4
10
53.06300602538715
20
2.072173903238536
11
54.066386086882034
21
2.149414512363819
0
LINE
8
1
62
4
10
54.066386086882034
20
2.149414512363819
11
55.069821952638264
21
2.225926752022133
0
LINE
8
1
62
4
10
55.069821952638264
20
2.225926752022133
11
56.073313093921016
21
2.301710581897396
0
LINE
8
1
62
4
10
56.073313093921016
20
2.301710581897396
11
57.07685898196631
21
2.3767659620571067
0
LINE
8
1
62
4
10
57.07685898196631
20
2.3767659620571067
11
58.08045908798161
21
2.4510928529527973
0
LINE
8
1
62
4
10
58.08045908798161
20
2.4510928529527973
11
59.0841128831449
21
2.524691215419807
0
LINE
8
1
62
4
10
59.0841128831449
20
2.524691215419807
11
60.08781983860682
21
2.5975610106775093
0
LINE
8
1
62
4
10
60.08781983860682
20
2.5975610106775093
11
61.091579425489655
21
2.6697022003288566
0
LINE
8
1
62
4
10
61.091579425489655
20
2.6697022003288566
11
62.0953911148883
21
2.741114746360836
0
LINE
8
1
62
4
10
62.0953911148883
20
2.741114746360836
11
63.099254377869215
21
2.8117986111446953
0
LINE
8
1
62
4
10
63.099254377869215
20
2.8117986111446953
11
64.10316868547271
21
2.88175375743549
0
LINE
8
1
62
4
10
64.10316868547271
20
2.88175375743549
11
65.10713350871178
21
2.9509801483714
0
LINE
8
1
62
4
10
65.10713350871178
20
2.9509801483714
11
66.11114831857287
21
3.019477747476003
0
LINE
8
1
62
4
10
66.11114831857287
20
3.019477747476003
11
67.11521258601638
21
3.087246518656457
0
LINE
8
1
62
4
10
67.11521258601638
20
3.087246518656457
11
68.11932578197572
21
3.154286426202816
0
LINE
8
1
62
4
10
68.11932578197572
20
3.154286426202816
11
69.12348737735941
21
3.2205974347909887
0
LINE
8
1
62
4
10
69.12348737735941
20
3.2205974347909887
11
70.12769684305023
21
3.28617950947978
0
LINE
8
1
62
4
10
70.12769684305023
20
3.28617950947978
11
71.131953649906
21
3.3510326157122563
0
LINE
8
1
62
4
10
71.131953649906
20
3.3510326157122563
11
72.13625726875865
21
3.4151567193159735
0
LINE
8
1
62
4
10
72.13625726875865
20
3.4151567193159735
11
73.14060717041643
21
3.4785517865020665
0
LINE
8
1
62
4
10
73.14060717041643
20
3.4785517865020665
11
74.14500282566281
21
3.5412177838663865
0
LINE
8
1
62
4
10
74.14500282566281
20
3.5412177838663865
11
75.14944370525755
21
3.603154678388819
0
LINE
8
1
62
4
10
75.14944370525755
20
3.603154678388819
11
76.15392927993562
21
3.6643624374330557
0
LINE
8
1
62
4
10
76.15392927993562
20
3.6643624374330557
11
77.15845902040932
21
3.724841028747278
0
LINE
8
1
62
4
10
77.15845902040932
20
3.724841028747278
11
78.16303239736743
21
3.784590420463701
0
LINE
8
1
62
4
10
78.16303239736743
20
3.784590420463701
11
79.16764888147571
21
3.8436105810990284
0
LINE
8
1
62
4
10
79.16764888147571
20
3.8436105810990284
11
80.17230794337753
21
3.901901479554226
0
LINE
8
1
62
4
10
80.17230794337753
20
3.901901479554226
11
81.17700905369286
21
3.959463085114521
0
LINE
8
1
62
4
10
81.17700905369286
20
3.959463085114521
11
82.18175168302048
21
4.01629536744872
0
LINE
8
1
62
4
10
82.18175168302048
20
4.01629536744872
11
83.18653530193698
21
4.072398296611027
0
LINE
8
1
62
4
10
83.18653530193698
20
4.072398296611027
11
84.19135938099764
21
4.127771843039227
0
LINE
8
1
62
4
10
84.19135938099764
20
4.127771843039227
11
85.1962233907355
21
4.182415977555593
0
LINE
8
1
62
4
10
85.1962233907355
20
4.182415977555593
11
86.2011268016635
21
4.236330671367114
0
LINE
8
1
62
4
10
86.2011268016635
20
4.236330671367114
11
87.20606908427351
21
4.2895158960643585
0
LINE
8
1
62
4
10
87.20606908427351
20
4.2895158960643585
11
88.2110497090372
21
4.341971623623294
0
LINE
8
1
62
4
10
88.2110497090372
20
4.341971623623294
11
89.21606814640514
21
4.393697826403013
0
LINE
8
1
62
4
10
89.21606814640514
20
4.393697826403013
11
90.22112386680887
21
4.4446944771484596
0
LINE
8
1
62
4
10
90.22112386680887
20
4.4446944771484596
11
91.22621634066002
21
4.494961548987703
0
LINE
8
1
62
4
10
91.22621634066002
20
4.494961548987703
11
92.23134503835081
21
4.544499015433985
0
LINE
8
1
62
4
10
92.23134503835081
20
4.544499015433985
11
93.23650943025471
21
4.593306850384806
0
LINE
8
1
62
4
10
93.23650943025471
20
4.593306850384806
11
94.24170898672546
21
4.641385028122386
0
LINE
8
1
62
4
10
94.24170898672546
20
4.641385028122386
11
95.24694317809916
21
4.688733523312521
0
LINE
8
1
62
4
10
95.24694317809916
20
4.688733523312521
11
96.25221147469337
21
4.735352311006864
0
LINE
8
1
62
4
10
96.25221147469337
20
4.735352311006864
11
97.257513346808
21
4.781241366640188
0
LINE
8
1
62
4
10
97.257513346808
20
4.781241366640188
11
98.26284826472437
21
4.826400666032896
0
LINE
8
1
62
4
10
98.26284826472437
20
4.826400666032896
11
99.26821569870722
21
4.870830185389423
0
LINE
8
1
62
4
10
99.26821569870722
20
4.870830185389423
11
100.27361511900395
21
4.914529901298238
0
LINE
8
1
62
4
10
100.27361511900395
20
4.914529901298238
11
101.27904599584534
21
4.957499790733664
0
LINE
8
1
62
4
10
101.27904599584534
20
4.957499790733664
11
102.2845077994447
21
4.999739831053375
0
LINE
8
1
62
4
10
102.2845077994447
20
4.999739831053375
11
103.29
21
5.041250000000002
0
LINE
8
1
62
4
10
103.29
20
5.041250000000002
11
104.37
21
5.041250000000002
0
LINE
8
1
62
4
10
104.37
20
5.041250000000002
11
104.37
21
29.42075
0
LINE
8
1
62
4
10
104.37
20
29.42075
11
103.29
21
29.42075
0
LINE
8
1
62
4
10
103.29
20
29.42075
11
29.0
21
32.962
0
LINE
8
1
62
4
10
29.0
20
32.962
11
20.0
21
32.962
0
LINE
8
1
62
4
10
20.0
20
32.962
11
10.0
21
29.577
0
LINE
8
1
62
4
10
10.0
20
29.577
11
0.0
21
29.806
0
LINE
8
1
62
4
10
0.0
20
29.806
11
0.0
21
24.518500000000003
0
LINE
8
1
62
4
10
0.0
20
24.518500000000003
11
10.0
21
23.518500000000003
0
LINE
8
1
62
4
10
10.0
20
23.518500000000003
11
0.0
21
22.518500000000003
0
LINE
8
1
62
4
10
0.0
20
22.518500000000003
11
0.0
21
18.231
0
LINE
8
1
62
4
10
0.0
20
18.231
11
10.0
21
17.231
0
LINE
8
1
62
4
10
10.0
20
17.231
11
0.0
21
16.231
0
LINE
8
1
62
4
10
0.0
20
16.231
11
0.0
21
6.577000000000002
0
ENDSEC
0
EOF
