999
Created on Wed, 14 Mar 2018 14:21:05
0
SECTION
2
HEADER
9
$ACADVER
1
AC1009
9
$INSBASE
10
0.0
20
0.0
30
0.0
9
$EXTMIN
10
0.0
20
0.0
9
$EXTMAX
10
102.58
20
30.052599999999998
0
ENDSEC
0
SECTION
2
TABLES
0
TABLE
2
LTYPE
70
1
0
LTYPE
2
CONTINUOUS
70
64
3
Solid Line
72
65
73
0
40
0.0
0
ENDTAB
0
TABLE
2
LAYER
70
6
0
LAYER
2
1
70
64
62
7
6
CONTINUOUS
0
ENDTAB
0
TABLE
2
STYLE
70
0
0
ENDTAB
0
ENDSEC
0
SECTION
2
BLOCKS
0
ENDSEC
0
SECTION
2
ENTITIES
0
LINE
8
1
62
255
10
0.0
20
6.0920999999999985
11
25.604
21
5.5920999999999985
0
LINE
8
1
62
255
10
25.604
20
5.5920999999999985
11
26.74540430988642
21
5.513532694297714
0
LINE
8
1
62
255
10
26.74540430988642
20
5.513532694297714
11
27.8833446865397
21
5.257584295592708
0
LINE
8
1
62
255
10
27.8833446865397
20
5.257584295592708
11
29.01592098168154
21
4.726952010849756
0
LINE
8
1
62
255
10
29.01592098168154
20
4.726952010849756
11
30.14123304703363
21
3.8243330470336296
0
LINE
8
1
62
255
10
30.14123304703363
20
3.8243330470336296
11
30.76808875406494
21
3.0531637540649412
0
LINE
8
1
62
255
10
30.76808875406494
20
3.0531637540649412
11
31.26114967853099
21
2.148199678530991
0
LINE
8
1
62
255
10
31.26114967853099
20
2.148199678530991
11
31.636194025489953
21
1.1252190254899528
0
LINE
8
1
62
255
10
31.636194025489953
20
1.1252190254899528
11
31.909
21
0.0
0
LINE
8
1
62
255
10
31.909
20
0.0
11
32.90122114796022
21
0.1922849318171984
0
LINE
8
1
62
255
10
32.90122114796022
20
0.1922849318171984
11
33.894134763641496
21
0.3809615155740289
0
LINE
8
1
62
255
10
33.894134763641496
20
0.3809615155740289
11
34.88772772483702
21
0.5660272577472938
0
LINE
8
1
62
255
10
34.88772772483702
20
0.5660272577472938
11
35.88198690036183
21
0.7474797125340729
0
LINE
8
1
62
255
10
35.88198690036183
20
0.7474797125340729
11
36.87689915022636
21
0.9253164818842379
0
LINE
8
1
62
255
10
36.87689915022636
20
0.9253164818842379
11
37.87245132581011
21
1.0995352155321712
0
LINE
8
1
62
255
10
37.87245132581011
20
1.0995352155321712
11
38.86863027003544
21
1.2701336110273473
0
LINE
8
1
62
255
10
38.86863027003544
20
1.2701336110273473
11
39.86542281754137
21
1.4371094137654836
0
LINE
8
1
62
255
10
39.86542281754137
20
1.4371094137654836
11
40.862815794857674
21
1.600460417017814
0
LINE
8
1
62
255
10
40.862815794857674
20
1.600460417017814
11
41.8607960205789
21
1.7601844619604776
0
LINE
8
1
62
255
10
41.8607960205789
20
1.7601844619604776
11
42.85935030553863
21
1.9162794377027694
0
LINE
8
1
62
255
10
42.85935030553863
20
1.9162794377027694
11
43.85846545298371
21
2.0687432813156192
0
LINE
8
1
62
255
10
43.85846545298371
20
2.0687432813156192
11
44.85812825874877
21
2.217573977858194
0
LINE
8
1
62
255
10
44.85812825874877
20
2.217573977858194
11
45.85832551143063
21
2.3627695604048995
0
LINE
8
1
62
255
10
45.85832551143063
20
2.3627695604048995
11
46.85904399256293
21
2.5043281100714125
0
LINE
8
1
62
255
10
46.85904399256293
20
2.5043281100714125
11
47.86027047679085
21
2.642247756039751
0
LINE
8
1
62
255
10
47.86027047679085
20
2.642247756039751
11
48.86199173204578
21
2.776526675583284
0
LINE
8
1
62
255
10
48.86199173204578
20
2.776526675583284
11
49.864194519720506
21
2.907163094090663
0
LINE
8
1
62
255
10
49.864194519720506
20
2.907163094090663
11
50.86686559484373
21
3.034155285089355
0
LINE
8
1
62
255
10
50.86686559484373
20
3.034155285089355
11
51.869991706255426
21
3.15750157026838
0
LINE
8
1
62
255
10
51.869991706255426
20
3.15750157026838
11
52.87355959678185
21
3.2772003195005937
0
LINE
8
1
62
255
10
52.87355959678185
20
3.2772003195005937
11
53.87755600341079
21
3.393249950864174
0
LINE
8
1
62
255
10
53.87755600341079
20
3.393249950864174
11
54.88196765746679
21
3.505648930663426
0
LINE
8
1
62
255
10
54.88196765746679
20
3.505648930663426
11
55.886781284786565
21
3.614395773449246
0
LINE
8
1
62
255
10
55.886781284786565
20
3.614395773449246
11
56.89198360589441
21
3.719489042038674
0
LINE
8
1
62
255
10
56.89198360589441
20
3.719489042038674
11
57.8975613361777
21
3.820927347533825
0
LINE
8
1
62
255
10
57.8975613361777
20
3.820927347533825
11
58.90350118606244
21
3.918709349340304
0
LINE
8
1
62
255
10
58.90350118606244
20
3.918709349340304
11
59.90978986118893
21
4.012833755184886
0
LINE
8
1
62
255
10
59.90978986118893
20
4.012833755184886
11
60.916414062587435
21
4.103299321132738
0
LINE
8
1
62
255
10
60.916414062587435
20
4.103299321132738
11
61.92336048685394
21
4.190104851603564
0
LINE
8
1
62
255
10
61.92336048685394
20
4.190104851603564
11
62.93061582632599
21
4.273249199387692
0
LINE
8
1
62
255
10
62.93061582632599
20
4.273249199387692
11
63.93816676925857
21
4.3527312656610775
0
LINE
8
1
62
255
10
63.93816676925857
20
4.3527312656610775
11
64.946
21
4.4285499999999995
0
LINE
8
1
62
255
10
64.946
20
4.4285499999999995
11
102.58
21
4.4285499999999995
0
LINE
8
1
62
255
10
102.58
20
4.4285499999999995
11
102.58
21
27.124049999999997
0
LINE
8
1
62
255
10
102.58
20
27.124049999999997
11
64.946
21
27.124049999999997
0
LINE
8
1
62
255
10
64.946
20
27.124049999999997
11
31.909
21
30.052599999999998
0
LINE
8
1
62
255
10
31.909
20
30.052599999999998
11
25.604
21
30.052599999999998
0
LINE
8
1
62
255
10
25.604
20
30.052599999999998
11
10.0
21
28.06385
0
LINE
8
1
62
255
10
10.0
20
28.06385
11
0.0
21
28.43585
0
LINE
8
1
62
255
10
0.0
20
28.43585
11
0.0
21
23.106074999999997
0
LINE
8
1
62
255
10
0.0
20
23.106074999999997
11
10.0
21
22.106074999999997
0
LINE
8
1
62
255
10
10.0
20
22.106074999999997
11
0.0
21
21.106074999999997
0
LINE
8
1
62
255
10
0.0
20
21.106074999999997
11
0.0
21
16.7763
0
LINE
8
1
62
255
10
0.0
20
16.7763
11
10.0
21
15.776299999999999
0
LINE
8
1
62
255
10
10.0
20
15.776299999999999
11
0.0
21
14.776299999999999
0
LINE
8
1
62
255
10
0.0
20
14.776299999999999
11
0.0
21
6.0920999999999985
0
ENDSEC
0
EOF
