999
Created on Wed, 14 Mar 2018 14:21:05
0
SECTION
2
HEADER
9
$ACADVER
1
AC1009
9
$INSBASE
10
0.0
20
0.0
30
0.0
9
$EXTMIN
10
-1.0
20
0.0
9
$EXTMAX
10
102.58
20
38.1447
0
ENDSEC
0
SECTION
2
TABLES
0
TABLE
2
LTYPE
70
1
0
LTYPE
2
CONTINUOUS
70
64
3
Solid Line
72
65
73
0
40
0.0
0
ENDTAB
0
TABLE
2
LAYER
70
6
0
LAYER
2
1
70
64
62
7
6
CONTINUOUS
0
ENDTAB
0
TABLE
2
STYLE
70
0
0
ENDTAB
0
ENDSEC
0
SECTION
2
BLOCKS
0
ENDSEC
0
SECTION
2
ENTITIES
0
LINE
8
1
62
255
10
-1.0
20
13.6842
11
25.604
21
11.6842
0
LINE
8
1
62
255
10
25.604
20
11.6842
11
26.67567301808239
21
11.496437703149626
0
LINE
8
1
62
255
10
26.67567301808239
20
11.496437703149626
11
27.730748206448204
21
11.087891075409399
0
LINE
8
1
62
255
10
27.730748206448204
20
11.087891075409399
11
28.768369205700008
21
10.447168824074563
0
LINE
8
1
62
255
10
28.768369205700008
20
10.447168824074563
11
29.787679656440357
21
9.562879656440359
0
LINE
8
1
62
255
10
29.787679656440357
20
9.562879656440359
11
30.37423298332514
21
8.88101298332514
0
LINE
8
1
62
255
10
30.37423298332514
20
8.88101298332514
11
30.8723391313354
21
8.110699131335405
0
LINE
8
1
62
255
10
30.8723391313354
20
8.110699131335405
11
31.292297351505024
21
7.262237351505028
0
LINE
8
1
62
255
10
31.292297351505024
20
7.262237351505028
11
31.64440689486788
21
6.345926894867883
0
LINE
8
1
62
255
10
31.64440689486788
20
6.345926894867883
11
31.938967012457848
21
5.37206701245785
0
LINE
8
1
62
255
10
31.938967012457848
20
5.37206701245785
11
32.1862769553088
21
4.350956955308804
0
LINE
8
1
62
255
10
32.1862769553088
20
4.350956955308804
11
32.39663597445462
21
3.292895974454619
0
LINE
8
1
62
255
10
32.39663597445462
20
3.292895974454619
11
32.580343320929174
21
2.208183320929173
0
LINE
8
1
62
255
10
32.580343320929174
20
2.208183320929173
11
32.74769824576634
21
1.1071182457663422
0
LINE
8
1
62
255
10
32.74769824576634
20
1.1071182457663422
11
32.909
21
0.0
0
LINE
8
1
62
255
10
32.909
20
0.0
11
33.82985432960377
21
0.39683025183265386
0
LINE
8
1
62
255
10
33.82985432960377
20
0.39683025183265386
11
34.7550255967811
21
0.7834891085902029
0
LINE
8
1
62
255
10
34.7550255967811
20
0.7834891085902029
11
35.68440145632393
21
1.1599296175933915
0
LINE
8
1
62
255
10
35.68440145632393
20
1.1599296175933915
11
36.61786905245298
21
1.5261060669953963
0
LINE
8
1
62
255
10
36.61786905245298
20
1.5261060669953963
11
37.55531503252202
21
1.8819739913324582
0
LINE
8
1
62
255
10
37.55531503252202
20
1.8819739913324582
11
38.49662556078253
21
2.2274901769236095
0
LINE
8
1
62
255
10
38.49662556078253
20
2.2274901769236095
11
39.44168633220702
21
2.562612667118046
0
LINE
8
1
62
255
10
39.44168633220702
20
2.562612667118046
11
40.39038258636917
21
2.8873007673901014
0
LINE
8
1
62
255
10
40.39038258636917
20
2.8873007673901014
11
41.34259912137948
21
3.2015150502807757
0
LINE
8
1
62
255
10
41.34259912137948
20
3.2015150502807757
11
42.29822030787445
21
3.5052173601855685
0
LINE
8
1
62
255
10
42.29822030787445
20
3.5052173601855685
11
43.25713010305762
21
3.7983708179876743
0
LINE
8
1
62
255
10
43.25713010305762
20
3.7983708179876743
11
44.21921206479087
21
4.08093982553639
0
LINE
8
1
62
255
10
44.21921206479087
20
4.08093982553639
11
45.18434936573423
21
4.35289006996976
0
LINE
8
1
62
255
10
45.18434936573423
20
4.35289006996976
11
46.15242480753233
21
4.614188527881353
0
LINE
8
1
62
255
10
46.15242480753233
20
4.614188527881353
11
47.12332083504616
21
4.864803469330241
0
LINE
8
1
62
255
10
47.12332083504616
20
4.864803469330241
11
48.096919550627874
21
5.104704461694141
0
LINE
8
1
62
255
10
48.096919550627874
20
5.104704461694141
11
49.0731027284374
21
5.333862373364809
0
LINE
8
1
62
255
10
49.0731027284374
20
5.333862373364809
11
50.05175182879874
21
5.552249377285591
0
LINE
8
1
62
255
10
50.05175182879874
20
5.552249377285591
11
51.03274801259452
21
5.75983895433049
0
LINE
8
1
62
255
10
51.03274801259452
20
5.75983895433049
11
52.015972155696815
21
5.956605896524437
0
LINE
8
1
62
255
10
52.015972155696815
20
5.956605896524437
11
53.001304863432544
21
6.1425263101043726
0
LINE
8
1
62
255
10
53.001304863432544
20
6.1425263101043726
11
53.9886264850819
21
6.317577618420643
0
LINE
8
1
62
255
10
53.9886264850819
20
6.317577618420643
11
54.97781712840767
21
6.481738564678594
0
LINE
8
1
62
255
10
54.97781712840767
20
6.481738564678594
11
55.968756674213985
21
6.634989214519777
0
LINE
8
1
62
255
10
55.968756674213985
20
6.634989214519777
11
56.96132479093259
21
6.7773109584426265
0
LINE
8
1
62
255
10
56.96132479093259
20
6.7773109584426265
11
57.955400949234956
21
6.908686514062239
0
LINE
8
1
62
255
10
57.955400949234956
20
6.908686514062239
11
58.95086443666837
21
7.029099928209021
0
LINE
8
1
62
255
10
58.95086443666837
20
7.029099928209021
11
59.94759437231421
21
7.138536578865882
0
LINE
8
1
62
255
10
59.94759437231421
20
7.138536578865882
11
60.945469721466814
21
7.236983176943852
0
LINE
8
1
62
255
10
60.945469721466814
20
7.236983176943852
11
61.944369310330906
21
7.324427767895784
0
LINE
8
1
62
255
10
61.944369310330906
20
7.324427767895784
11
62.944171840735876
21
7.400859733167977
0
LINE
8
1
62
255
10
62.944171840735876
20
7.400859733167977
11
63.94475590486538
21
7.466269791489651
0
LINE
8
1
62
255
10
63.94475590486538
20
7.466269791489651
11
64.946
21
7.520650000000002
0
LINE
8
1
62
255
10
64.946
20
7.520650000000002
11
102.58
21
7.520650000000002
0
LINE
8
1
62
255
10
102.58
20
7.520650000000002
11
102.58
21
34.21615
0
LINE
8
1
62
255
10
102.58
20
34.21615
11
64.946
21
34.21615
0
LINE
8
1
62
255
10
64.946
20
34.21615
11
31.909
21
38.1447
0
LINE
8
1
62
255
10
31.909
20
38.1447
11
25.604
21
38.1447
0
LINE
8
1
62
255
10
25.604
20
38.1447
11
0.0
21
37.5069709148726
0
LINE
8
1
62
255
10
0.0
20
37.5069709148726
11
-0.27390470445656223
21
30.981801888098037
0
LINE
8
1
62
255
10
-0.27390470445656223
20
30.981801888098037
11
12.662232517806876
21
29.187685457436302
0
LINE
8
1
62
255
10
12.662232517806876
20
29.187685457436302
11
-0.378753983617768
21
28.484001530051106
0
LINE
8
1
62
255
10
-0.378753983617768
20
28.484001530051106
11
-0.6195994208073775
21
22.746395853990702
0
LINE
8
1
62
255
10
-0.6195994208073775
20
22.746395853990702
11
14.314778087893604
21
20.8684
0
LINE
8
1
62
255
10
14.314778087893604
20
20.8684
11
-0.7244486999685832
21
20.24859549594377
0
LINE
8
1
62
255
10
-0.7244486999685832
20
20.24859549594377
11
-1.0
21
13.6842
0
ENDSEC
0
EOF
