999
Created on Thu, 15 Feb 2018 18:18:42
0
SECTION
2
HEADER
9
$INSBASE
10
0.0
20
0.0
30
0.0
9
$EXTMIN
10
-1.0
20
0.0
9
$EXTMAX
10
100.0
20
37.5
0
ENDSEC
0
SECTION
2
TABLES
0
TABLE
2
LTYPE
70
1
0
LTYPE
2
CONTINUOUS
70
64
3
Solid Line
72
65
73
0
40
0.0
0
ENDTAB
0
TABLE
2
LAYER
70
6
0
LAYER
2
1
70
64
62
7
6
CONTINUOUS
0
ENDTAB
0
TABLE
2
STYLE
70
0
0
ENDTAB
0
ENDSEC
0
SECTION
2
BLOCKS
0
ENDSEC
0
SECTION
2
ENTITIES
0
LINE
8
1
62
4
10
-1.0
20
13.5
11
20.0
21
11.5
0
LINE
8
1
62
4
10
20.0
20
11.5
11
21.004429201199216
21
11.425441364565554
0
LINE
8
1
62
4
10
21.004429201199216
20
11.425441364565554
11
22.009631074342728
21
11.358995784546249
0
LINE
8
1
62
4
10
22.009631074342728
20
11.358995784546249
11
23.010789880493842
21
11.250098001106757
0
LINE
8
1
62
4
10
23.010789880493842
20
11.250098001106757
11
24.003089880715862
21
11.04818275541175
0
LINE
8
1
62
4
10
24.003089880715862
20
11.04818275541175
11
24.981715336072085
21
10.7026847886259
0
LINE
8
1
62
4
10
24.981715336072085
20
10.7026847886259
11
25.941850507625816
21
10.16303884191388
0
LINE
8
1
62
4
10
25.941850507625816
20
10.16303884191388
11
26.878679656440358
21
9.378679656440358
0
LINE
8
1
62
4
10
26.878679656440358
20
9.378679656440358
11
27.517483054980463
21
8.628594166091574
0
LINE
8
1
62
4
10
27.517483054980463
20
8.628594166091574
11
28.053512047278627
21
7.775734269500848
0
LINE
8
1
62
4
10
28.053512047278627
20
7.775734269500848
11
28.49952816168495
21
6.8328614950182835
0
LINE
8
1
62
4
10
28.49952816168495
20
6.8328614950182835
11
28.868292926549536
21
5.81273737099398
0
LINE
8
1
62
4
10
28.868292926549536
20
5.81273737099398
11
29.172567870222487
21
4.728123425778042
0
LINE
8
1
62
4
10
29.172567870222487
20
4.728123425778042
11
29.425114521053906
21
3.5917811877205734
0
LINE
8
1
62
4
10
29.425114521053906
20
3.5917811877205734
11
29.638694407393896
21
2.416472185171674
0
LINE
8
1
62
4
10
29.638694407393896
20
2.416472185171674
11
29.826069057592562
21
1.2149579464814497
0
LINE
8
1
62
4
10
29.826069057592562
20
1.2149579464814497
11
30.0
21
0.0
0
LINE
8
1
62
4
10
30.0
20
0.0
11
30.947724537244362
21
0.40261395089346763
0
LINE
8
1
62
4
10
30.947724537244362
20
0.40261395089346763
11
31.90059881586719
21
0.7928836026575965
0
LINE
8
1
62
4
10
31.90059881586719
20
0.7928836026575965
11
32.858462056898986
21
1.1707431048923524
0
LINE
8
1
62
4
10
32.858462056898986
20
1.1707431048923524
11
33.821152639580106
21
1.5361287011686358
0
LINE
8
1
62
4
10
33.821152639580106
20
1.5361287011686358
11
34.78850812863096
21
1.8889787397859692
0
LINE
8
1
62
4
10
34.78850812863096
20
1.8889787397859692
11
35.76036530165996
21
2.2292336841749716
0
LINE
8
1
62
4
10
35.76036530165996
20
2.2292336841749716
11
36.73656017670401
21
2.556836122943011
0
LINE
8
1
62
4
10
36.73656017670401
20
2.556836122943011
11
37.71692803989737
21
2.871730779561304
0
LINE
8
1
62
4
10
37.71692803989737
20
2.871730779561304
11
38.70130347326381
21
3.173864521691698
0
LINE
8
1
62
4
10
38.70130347326381
20
3.173864521691698
11
39.68952038262772
21
3.463186370151732
0
LINE
8
1
62
4
10
39.68952038262772
20
3.463186370151732
11
40.68141202563923
21
3.739647507516395
0
LINE
8
1
62
4
10
40.68141202563923
20
3.739647507516395
11
41.67681103990884
21
4.003201286355093
0
LINE
8
1
62
4
10
41.67681103990884
20
4.003201286355093
11
42.67554947124643
21
4.253803237102517
0
LINE
8
1
62
4
10
42.67554947124643
20
4.253803237102517
11
43.6774588020003
21
4.491411075562013
0
LINE
8
1
62
4
10
43.6774588020003
20
4.491411075562013
11
44.682369979491284
21
4.715984710040189
0
LINE
8
1
62
4
10
44.682369979491284
20
4.715984710040189
11
45.69011344453707
21
4.927486248111634
0
LINE
8
1
62
4
10
45.69011344453707
20
4.927486248111634
11
46.70051916006197
21
5.125880003012554
0
LINE
8
1
62
4
10
46.70051916006197
20
5.125880003012554
11
47.71341663978743
21
5.311132499662122
0
LINE
8
1
62
4
10
47.71341663978743
20
5.311132499662122
11
48.72863497699821
21
5.483212480310826
0
LINE
8
1
62
4
10
48.72863497699821
20
5.483212480310826
11
49.746002873379574
21
5.642090909814641
0
LINE
8
1
62
4
10
49.746002873379574
20
5.642090909814641
11
50.76534866792062
21
5.787740980534011
0
LINE
8
1
62
4
10
50.76534866792062
20
5.787740980534011
11
51.78650036587861
21
5.920138116857231
0
LINE
8
1
62
4
10
51.78650036587861
20
5.920138116857231
11
52.809285667799784
21
6.039259979347094
0
LINE
8
1
62
4
10
52.809285667799784
20
6.039259979347094
11
53.833531998591596
21
6.145086468510158
0
LINE
8
1
62
4
10
53.833531998591596
20
6.145086468510158
11
54.8590665366413
21
6.237599728188215
0
LINE
8
1
62
4
10
54.8590665366413
20
6.237599728188215
11
55.88571624297628
21
6.316784148571145
0
LINE
8
1
62
4
10
55.88571624297628
20
6.316784148571145
11
56.913307890461
21
6.382626368830785
0
LINE
8
1
62
4
10
56.913307890461
20
6.382626368830785
11
57.941668093025704
21
6.435115279375282
0
LINE
8
1
62
4
10
57.941668093025704
20
6.435115279375282
11
58.97062333492194
21
6.474242023723605
0
LINE
8
1
62
4
10
58.97062333492194
20
6.474242023723605
11
60.0
21
6.5
0
LINE
8
1
62
4
10
60.0
20
6.5
11
100.0
21
6.5
0
LINE
8
1
62
4
10
100.0
20
6.5
11
100.0
21
34.5
0
LINE
8
1
62
4
10
100.0
20
34.5
11
60.0
21
34.5
0
LINE
8
1
62
4
10
60.0
20
34.5
11
29.0
21
37.5
0
LINE
8
1
62
4
10
29.0
20
37.5
11
20.0
21
37.5
0
LINE
8
1
62
4
10
20.0
20
37.5
11
0.0
21
36.97871376374779
0
LINE
8
1
62
4
10
0.0
20
36.97871376374779
11
-0.27417590690427157
21
30.541416124626437
0
LINE
8
1
62
4
10
-0.27417590690427157
20
30.541416124626437
11
12.660857238998762
21
28.739356881873896
0
LINE
8
1
62
4
10
12.660857238998762
20
28.739356881873896
11
-0.38055888562767587
21
28.043680617844757
0
LINE
8
1
62
4
10
-0.38055888562767587
20
28.043680617844757
11
-0.6214798768298178
21
22.387165625731267
0
LINE
8
1
62
4
10
-0.6214798768298178
20
22.387165625731267
11
14.311741674498558
21
20.5
0
LINE
8
1
62
4
10
14.311741674498558
20
20.5
11
-0.727862855553222
21
19.889430118949587
0
LINE
8
1
62
4
10
-0.727862855553222
20
19.889430118949587
11
-1.0
21
13.5
0
ENDSEC
0
EOF
